<?xml version="1.0" standalone="no"?><!DOCTYPE svg PUBLIC "-//W3C//DTD SVG 1.1//EN" "http://www.w3.org/Graphics/SVG/1.1/DTD/svg11.dtd"><svg t="1598340637457" class="icon" viewBox="0 0 1024 1024" version="1.1" xmlns="http://www.w3.org/2000/svg" p-id="1219" xmlns:xlink="http://www.w3.org/1999/xlink" width="200" height="200"><defs><style type="text/css"></style></defs><path d="M907.5078125 233.90856933L907.5078125 790.09143067c0 10.19668579-8.34274292 18.53942872-18.53942873 18.5394287l-61.79809568 0c-10.19668579 0-18.53942872-8.34274292-18.53942872-18.53942871l0-234.67826842L543.67152404 797.19821166C511.84550476 823.61689758 462.56152344 801.52407837 462.56152344 759.19238281l0-203.77922058L197.60218811 797.19821167C165.77616882 823.61689759 116.4921875 801.52407837 116.4921875 759.19238281l0-494.38476562c0-42.33169555 49.28398132-64.42451477 81.11000061-38.00582886L462.56152344 466.7328949 462.56152344 264.80761719c0-42.33169555 49.28398132-64.42451477 81.1100006-38.00582885L808.63085938 466.7328949 808.63085938 233.90856933c0-10.19668579 8.34274292-18.53942872 18.53942871-18.5394287L888.96838379 215.36914063c10.19668579 0 18.53942872 8.34274292 18.53942871 18.53942871z" p-id="1220" fill="#adafbc"></path></svg>